<?xml version="1.0" standalone="no"?>
<!DOCTYPE svg PUBLIC "-//W3C//DTD SVG 20010904//EN"
 "http://www.w3.org/TR/2001/REC-SVG-20010904/DTD/svg10.dtd">
<svg version="1.0" xmlns="http://www.w3.org/2000/svg"
 width="500.000000pt" height="500.000000pt" viewBox="0 0 500.000000 500.000000"
 preserveAspectRatio="xMidYMid meet">
<metadata>
Created by potrace 1.11, written by Peter Selinger 2001-2013
</metadata>
<g transform="translate(0.000000,500.000000) scale(0.100000,-0.100000)"
fill="#000000" stroke="none">
<path d="M2245 4989 c-168 -21 -368 -66 -520 -119 -245 -86 -486 -219 -695
-385 -91 -72 -258 -236 -332 -325 -213 -257 -379 -575 -463 -885 -27 -99 -30
-113 -50 -233 -38 -221 -41 -523 -9 -732 101 -658 457 -1224 1004 -1599 47
-32 102 -68 123 -79 l38 -20 -63 -21 c-95 -31 -196 -53 -300 -65 -44 -5 -43
-7 -23 89 8 38 13 70 12 71 -1 1 -76 4 -167 8 -179 6 -207 9 -320 32 -129 26
-217 63 -287 121 -51 41 -54 32 -19 -59 35 -94 92 -203 126 -241 16 -19 30
-38 30 -42 0 -4 -22 -30 -49 -59 -92 -96 -130 -141 -131 -152 0 -10 79 -44
185 -78 28 -9 93 -21 145 -27 52 -6 100 -13 107 -15 7 -1 10 -21 8 -51 -3 -62
0 -70 38 -82 65 -21 105 -25 227 -25 133 0 199 9 401 55 141 31 159 37 478
151 205 72 423 136 526 153 180 29 369 25 540 -11 11 -3 41 -9 67 -14 124 -25
302 -75 598 -170 381 -122 446 -134 733 -135 153 0 200 3 206 13 4 7 7 37 6
66 l-1 53 80 6 c91 7 231 44 319 85 l58 27 -95 100 c-52 55 -95 103 -96 107 0
3 11 20 25 36 37 44 103 173 135 262 16 44 26 80 23 80 -2 0 -23 -15 -46 -34
-126 -102 -335 -151 -644 -151 l-131 0 5 -30 c3 -16 9 -47 13 -67 7 -35 6 -38
-14 -38 -34 0 -154 28 -248 56 l-87 27 84 57 c389 260 706 649 874 1073 124
312 172 578 166 927 -2 107 -5 204 -8 215 -4 18 -14 85 -22 145 -11 84 -64
278 -108 400 -291 804 -1017 1393 -1866 1516 -25 4 -55 9 -66 11 -39 9 -451
10 -520 2z m599 -63 c239 -39 447 -106 671 -216 235 -116 406 -239 601 -434
139 -139 197 -210 295 -360 208 -317 321 -632 369 -1028 9 -74 6 -462 -3 -508
-3 -14 -11 -59 -17 -100 -17 -118 -58 -274 -106 -408 -170 -468 -475 -857
-895 -1138 l-109 -73 -68 20 c-204 60 -379 106 -587 152 -33 8 -53 16 -45 19
8 3 69 23 135 44 399 126 771 424 993 795 102 170 204 422 228 564 1 11 8 47
13 80 20 114 22 141 25 285 21 946 -675 1749 -1624 1876 -73 9 -338 11 -420 2
-57 -7 -89 -12 -200 -32 -50 -9 -204 -57 -294 -92 -214 -83 -452 -240 -619
-410 -358 -362 -549 -833 -541 -1336 3 -231 32 -391 110 -613 60 -170 213
-437 321 -557 45 -51 199 -205 234 -233 183 -152 438 -288 659 -351 52 -14
102 -29 110 -32 8 -2 -41 -19 -110 -37 -144 -37 -320 -89 -467 -139 l-102 -34
-77 45 c-467 274 -843 743 -1010 1263 -26 80 -59 205 -68 255 -3 17 -8 41 -11
55 -5 25 -7 37 -22 170 -16 130 -7 447 15 580 27 165 28 168 63 290 81 283
225 563 409 795 61 76 234 255 310 320 250 215 576 385 900 469 136 35 152 38
315 61 123 17 489 12 619 -9z m-4 -500 c657 -136 1166 -588 1371 -1219 36
-111 70 -277 72 -353 l2 -58 -37 -1 c-55 -2 -66 -17 -62 -76 4 -58 -4 -65 -71
-55 -27 5 -45 12 -45 20 0 8 -8 16 -17 19 -10 4 -42 15 -71 26 -45 17 -54 18
-59 6 -4 -12 -9 -12 -26 -3 -29 16 -44 12 -74 -20 -14 -15 -30 -26 -35 -24 -6
1 -16 -3 -24 -9 -15 -13 -44 3 -44 25 0 6 -22 21 -47 32 -40 19 -50 20 -66 9
-15 -11 -23 -11 -45 1 -23 12 -30 11 -50 -2 -13 -9 -33 -13 -44 -11 -11 3 -27
-2 -39 -14 -10 -10 -19 -16 -19 -13 0 4 -11 -5 -25 -20 -21 -23 -28 -25 -47
-15 -15 8 -69 10 -180 7 -146 -5 -160 -4 -168 13 -6 10 -10 26 -10 37 0 28
-40 35 -200 35 -119 0 -141 -2 -182 -22 -36 -16 -48 -28 -48 -44 0 -34 -12
-43 -52 -42 -43 2 -79 29 -77 59 4 38 -1 56 -13 56 -20 0 -78 -56 -78 -74 0
-9 -6 -16 -12 -16 -14 0 -51 -53 -62 -88 -5 -13 -3 -22 4 -22 12 0 3 -49 -13
-65 -6 -7 -8 -5 -5 4 2 8 -4 23 -15 34 -10 10 -16 25 -13 32 3 8 -3 20 -12 27
-10 7 -19 30 -21 53 -1 22 -8 43 -15 47 -6 4 -7 8 -3 8 5 0 5 6 0 13 -4 6 -6
20 -5 30 2 9 -2 17 -7 17 -6 0 -11 9 -11 20 0 12 -7 34 -15 50 -9 17 -13 30
-10 30 3 0 0 10 -6 23 -7 12 -12 46 -11 76 1 49 -10 88 -28 101 -4 3 -11 19
-17 35 -14 42 -41 46 -35 5 2 -18 0 -30 -7 -30 -6 0 -11 9 -11 19 0 11 -5 23
-12 27 -7 4 -8 3 -4 -4 4 -7 2 -20 -3 -29 -9 -16 -10 -14 -11 10 0 15 -5 27
-11 27 -5 0 -8 -4 -5 -8 2 -4 1 -14 -5 -22 -7 -12 -9 -10 -9 7 0 12 -5 25 -12
29 -8 5 -9 2 -5 -9 3 -9 2 -19 -3 -22 -6 -4 -10 4 -11 17 l0 23 -10 -23 c-10
-27 -33 -19 -26 9 3 11 1 19 -4 19 -5 0 -9 -12 -9 -27 0 -19 -3 -24 -8 -15 -5
8 -16 10 -27 6 -15 -6 -17 -4 -13 14 4 12 2 25 -3 28 -5 3 -9 -4 -9 -16 0 -12
-4 -19 -9 -16 -5 3 -7 15 -4 26 10 36 -24 21 -45 -20 -7 -14 -21 -38 -32 -55
-23 -37 -34 -112 -17 -119 9 -3 9 -7 -1 -13 -7 -5 -21 -36 -33 -69 -11 -32
-23 -66 -26 -74 -4 -8 -8 -25 -9 -37 -2 -13 -10 -33 -18 -45 -9 -12 -16 -32
-16 -43 0 -12 -7 -30 -15 -41 -8 -10 -15 -29 -15 -41 0 -28 -10 -53 -21 -53
-5 0 -9 6 -9 14 0 23 -85 43 -106 25 -7 -6 -18 -8 -24 -4 -5 3 -16 3 -22 -2
-18 -11 -69 -12 -62 -2 11 18 -19 8 -47 -15 -16 -13 -36 -23 -46 -21 -10 2
-24 4 -30 4 -7 1 -13 7 -13 15 0 19 -56 47 -77 39 -11 -4 -14 -2 -9 5 6 11 0
14 -20 11 -4 0 -10 5 -14 11 -4 7 -27 13 -51 14 -40 1 -45 -2 -61 -34 l-17
-35 -1 33 c0 17 5 32 10 32 6 0 10 7 10 16 0 10 -5 14 -15 10 -9 -3 -18 1 -21
9 -5 11 -11 12 -24 5 -11 -6 -21 -6 -24 -2 -3 5 -24 9 -46 10 -23 1 -45 4 -50
7 -4 3 -13 -1 -19 -9 -6 -7 -21 -13 -34 -12 -20 1 -22 6 -21 56 1 60 12 183
19 221 3 13 8 38 11 54 85 470 377 905 789 1175 218 142 525 253 770 277 33 3
62 7 65 10 2 2 85 2 185 -1 141 -3 207 -10 305 -30z m-977 -1343 c-7 -2 -19
-2 -25 0 -7 3 -2 5 12 5 14 0 19 -2 13 -5z m74 -9 c-3 -3 -12 -4 -19 -1 -8 3
-5 6 6 6 11 1 17 -2 13 -5z m26 -181 c-8 -19 -22 -16 -18 5 2 9 4 22 4 27 1 6
5 4 10 -4 5 -8 7 -20 4 -28z m17 -63 c0 -19 -11 -26 -23 -14 -8 8 3 34 14 34
5 0 9 -9 9 -20z m10 -70 c0 -11 -6 -20 -13 -20 -7 0 -13 9 -14 20 -1 11 4 20
13 20 8 0 14 -9 14 -20z m12 -100 c-5 -31 -8 -34 -25 -27 -21 8 -10 59 12 55
11 -2 15 -12 13 -28z m1637 -20 c18 -17 38 -30 42 -30 5 0 11 0 14 0 3 0 21
-7 41 -15 33 -14 39 -13 79 5 24 11 49 20 55 20 6 0 18 7 26 15 28 27 83 16
130 -26 11 -10 44 -23 74 -29 70 -13 80 -23 51 -54 -20 -21 -30 -24 -69 -20
-25 2 -53 11 -62 19 -9 8 -22 15 -28 15 -6 0 -15 6 -19 14 -10 17 -47 36 -71
36 -10 0 -24 -11 -30 -25 -6 -14 -20 -25 -29 -25 -10 -1 -36 -9 -58 -20 -22
-11 -53 -19 -68 -20 -30 0 -127 45 -127 59 0 5 -14 14 -30 21 -33 13 -80 2
-80 -20 0 -5 -7 -10 -16 -10 -9 0 -27 -9 -41 -20 -14 -11 -33 -20 -41 -20 -21
0 -92 32 -92 42 0 4 -8 8 -18 8 -27 0 -68 22 -82 43 -10 17 -8 18 42 12 87
-10 108 -16 108 -31 0 -23 35 -16 61 12 38 40 108 73 159 73 36 1 52 -5 79
-29z m586 -31 c-3 -4 -12 -6 -20 -3 -8 4 -13 10 -10 15 3 4 12 6 20 3 8 -4 13
-10 10 -15z m-2215 -34 c0 -15 -6 -25 -14 -25 -7 0 -16 11 -18 25 -4 19 -1 25
13 25 14 0 19 -7 19 -25z m2300 -87 c0 -10 -7 -18 -15 -18 -16 0 -19 17 -9 45
5 13 8 14 15 3 5 -7 9 -21 9 -30z m-1888 19 c14 -21 -4 -32 -50 -31 -63 2 -62
1 -62 23 0 15 8 18 53 18 28 -1 55 -5 59 -10z m166 -11 c-3 -17 -11 -20 -56
-21 -54 -1 -68 6 -59 28 3 8 26 13 61 13 51 0 57 -2 54 -20z m160 0 c-3 -18
-11 -21 -55 -21 -41 0 -53 3 -56 17 -6 21 5 25 66 24 42 0 47 -3 45 -20z m164
10 c14 -20 -5 -32 -51 -31 -54 0 -66 6 -58 28 6 16 98 19 109 3z m168 -7 c0
-21 -14 -26 -65 -23 -55 3 -54 2 -50 22 2 9 4 17 4 18 1 0 26 1 56 1 45 0 55
-3 55 -18z m-1870 -32 c0 -7 -10 -21 -21 -31 -27 -23 -46 -7 -27 23 14 23 48
29 48 8z m2960 -54 c0 -26 71 -23 -585 -23 -624 0 -555 -3 -555 23 l0 22 570
0 570 0 0 -22z m-1850 -13 c0 -20 -19 -25 -80 -20 -33 3 -40 8 -33 25 3 11 21
15 59 15 47 0 54 -2 54 -20z m163 6 c8 -22 -2 -26 -60 -26 -46 0 -53 3 -53 20
0 18 7 20 54 20 37 0 56 -4 59 -14z m165 -8 c3 -16 -5 -18 -57 -18 -44 0 -61
4 -61 13 0 23 13 28 65 25 38 -2 51 -7 53 -20z m160 0 c-3 -20 -8 -22 -53 -19
-59 3 -66 7 -58 26 4 11 21 15 60 15 50 0 54 -2 51 -22z m168 5 c-2 -35 -116
-36 -116 -2 0 16 8 19 59 19 50 0 59 -3 57 -17z m846 -79 c-5 -25 -10 -30 -22
-18 -13 13 -2 46 14 41 6 -2 9 -13 8 -23z m-505 9 c-2 -5 -7 -17 -11 -28 -6
-16 -9 -17 -16 -5 -16 24 -11 40 11 40 11 0 18 -3 16 -7z m-114 -12 c4 -1 7
-8 7 -16 0 -15 -8 -17 -50 -17 -36 0 -40 2 -40 20 0 15 7 18 38 16 20 -1 40
-2 45 -3z m-405 -15 c24 -15 -6 -33 -50 -31 -58 3 -58 3 -58 23 0 16 8 18 48
18 26 -1 53 -5 60 -10z m137 -6 c0 -11 -12 -15 -42 -16 -34 -1 -43 3 -43 15 0
13 10 17 43 16 30 0 42 -4 42 -15z m142 0 c2 -17 -4 -20 -37 -20 -23 0 -40 5
-43 14 -8 20 2 26 43 26 29 0 36 -4 37 -20z m-1157 -20 c0 -16 -3 -30 -7 -31
-11 -1 -85 -1 -100 0 -7 1 -13 14 -13 31 l0 30 60 0 60 0 0 -30z m543 13 c17
-27 -3 -39 -61 -37 -31 1 -60 2 -64 3 -7 1 -5 21 4 37 9 14 111 12 121 -3z
m177 -5 c0 -15 -9 -18 -55 -18 -46 0 -55 3 -55 18 0 15 9 17 55 17 46 0 55 -2
55 -17z m-900 -15 c0 -22 -3 -23 -74 -23 -72 0 -86 6 -86 39 0 4 36 7 80 7 77
0 80 0 80 -23z m358 0 c3 -22 0 -23 -57 -23 -58 0 -61 1 -57 23 3 12 5 23 5
23 1 1 25 1 54 0 46 -1 52 -4 55 -23z m192 8 c0 -25 -123 -24 -128 1 -3 14 7
16 62 16 55 -1 66 -4 66 -17z m1207 -7 c-9 -9 -28 6 -21 18 4 6 10 6 17 -1 6
-6 8 -13 4 -17z m-2137 -17 l0 -34 -55 0 c-53 0 -55 1 -55 27 0 35 2 37 60 39
l50 1 0 -33z m180 3 l0 -30 -70 0 c-72 0 -79 5 -64 44 5 12 21 16 70 16 l64 0
0 -30z m-563 11 c6 -1 9 -10 6 -21 -5 -17 -14 -20 -63 -20 -53 0 -57 2 -55 23
1 12 3 23 4 24 1 1 36 -1 108 -6z m214 -3 c0 -7 2 -21 4 -31 3 -16 -4 -18 -78
-15 -78 3 -80 4 -84 29 l-3 26 80 2 c60 2 80 -1 81 -11z m-355 -28 c0 -18 -6
-20 -41 -19 -52 3 -65 8 -65 25 0 10 14 14 53 14 46 0 53 -2 53 -20z m1645
-23 c86 -3 160 -2 165 3 15 14 424 19 424 5 0 -7 -18 -12 -47 -12 -108 -1
-309 -15 -319 -24 -9 -7 -211 -12 -413 -10 -72 1 -107 13 -95 32 3 5 10 7 15
4 5 -4 18 0 30 8 14 11 30 13 52 7 18 -4 102 -11 188 -13z m1525 -29 c-4 -47
-32 -49 -40 -3 -9 44 -1 58 24 45 13 -7 18 -19 16 -42z m-603 24 c25 -28 6
-46 -44 -43 -23 1 -46 4 -51 7 -14 9 11 42 34 47 41 8 45 7 61 -11z m344 -6
c-13 -27 -27 -25 -27 5 0 12 7 19 19 19 17 0 18 -3 8 -24z m143 -17 c0 -26 -3
-30 -22 -27 -24 3 -27 30 -6 55 15 19 28 6 28 -28z m-1902 -2 c3 -14 -5 -17
-42 -17 -43 0 -63 11 -52 28 3 5 24 8 48 7 32 -1 44 -6 46 -18z m-692 -19 c-1
-28 -1 -28 -73 -28 -71 0 -73 1 -73 24 0 30 8 33 86 32 60 -1 61 -1 60 -28z
m162 23 c6 0 12 -8 12 -16 0 -12 -14 -15 -69 -15 -61 0 -69 2 -65 18 4 14 15
17 57 16 29 -1 58 -2 65 -3z m200 -12 c3 -15 -7 -17 -70 -15 -61 1 -73 4 -76
19 -3 16 4 18 70 15 58 -2 73 -6 76 -19z m172 6 c0 -11 -13 -15 -53 -15 -41 0
-54 4 -54 15 0 11 13 15 54 15 40 0 53 -4 53 -15z m-720 -15 c0 -24 6 -22 -92
-24 -75 -1 -78 0 -78 21 0 22 3 23 85 23 78 0 85 -2 85 -20z m2540 11 c0 -20
-13 -41 -21 -35 -15 9 -10 44 6 44 8 0 15 -4 15 -9z m-2750 -26 c0 -20 -7 -21
-101 -16 -9 1 -19 9 -22 20 -4 16 2 18 59 18 58 -1 64 -3 64 -22z m2288 -4
c-2 -26 -6 -29 -40 -29 -35 -1 -38 1 -38 29 0 27 2 29 40 29 38 0 40 -1 38
-29z m-118 -16 c0 -33 -2 -35 -35 -35 -26 0 -35 4 -36 18 0 9 -2 25 -4 35 -3
14 4 17 36 17 38 0 39 -1 39 -35z m-972 -20 c-3 -29 -7 -31 -48 -26 -14 1 -13
48 1 53 6 2 20 4 31 4 15 0 18 -6 16 -31z m141 -10 l2 -45 -51 0 -50 0 0 45 0
45 48 0 48 0 3 -45z m324 36 c4 0 7 -23 7 -50 l0 -49 -33 2 c-47 4 -53 9 -55
58 l-3 44 38 -2 c21 -1 41 -2 46 -3z m275 -39 l3 -42 -50 0 c-53 0 -53 0 -53
55 0 14 0 26 1 28 1 1 22 3 49 2 l47 0 3 -43z m118 6 c1 -37 0 -38 -32 -38
-33 0 -34 1 -34 41 0 39 1 40 33 37 30 -3 32 -6 33 -40z m754 24 c0 -13 -12
-22 -22 -16 -10 6 -1 24 13 24 5 0 9 -4 9 -8z m-1265 -48 l0 -39 -75 0 -75 0
-3 43 -3 43 78 -4 78 -4 0 -39z m260 15 c4 -17 5 -33 2 -36 -3 -2 -25 -5 -49
-6 -43 -2 -43 -1 -46 36 l-3 37 45 0 c41 0 45 -2 51 -31z m-775 -15 l0 -32
-74 -1 c-63 -1 -75 2 -78 17 -10 43 0 49 78 49 l74 0 0 -33z m1546 21 c8 -21
-6 -41 -17 -24 -12 19 -11 39 1 39 6 0 13 -7 16 -15z m-2101 -26 c4 -44 -4
-49 -71 -49 -63 0 -64 0 -64 28 0 40 12 47 76 46 53 -1 58 -3 59 -25z m351 1
c0 -30 0 -30 -58 -30 -32 0 -58 3 -59 8 -6 56 -10 52 56 52 l61 0 0 -30z
m1679 -7 c0 -25 -4 -29 -42 -34 -24 -3 -43 -3 -44 0 0 3 -2 16 -5 28 -3 19 2
23 39 31 52 11 53 10 52 -25z m-2409 18 c6 -1 10 -17 9 -38 l-1 -38 -59 3
c-33 2 -61 4 -62 6 -1 1 0 19 4 39 l6 37 46 -4 c25 -3 51 -5 57 -5z m209 -28
l1 -33 -68 0 -69 0 3 35 2 36 65 -3 65 -3 1 -32z m340 27 c3 -5 2 -18 -4 -27
-7 -14 -20 -18 -57 -16 -48 2 -66 15 -57 40 6 15 108 19 118 3z m2420 -10 c18
-20 17 -20 -35 -20 l-53 0 23 20 c13 11 28 20 35 20 7 0 20 -9 30 -20z m-3125
1 c7 -1 7 -81 -1 -81 -3 0 -16 11 -28 24 -26 28 -22 66 7 61 9 -2 19 -4 22 -4z
m2416 -41 c1 -25 -3 -30 -30 -35 -17 -4 -39 -9 -48 -11 -13 -4 -19 4 -26 28
-8 30 -6 34 17 39 14 4 40 7 56 8 27 1 30 -2 31 -29z m-166 -40 c0 -34 -1 -36
-39 -37 -37 -1 -39 0 -44 30 -5 38 -1 42 47 42 35 0 36 -1 36 -35z m633 12
c-12 -33 -16 -35 -25 -13 -10 27 -3 42 17 35 8 -3 11 -13 8 -22z m-1641 2 c21
-5 27 -12 26 -29 -2 -21 -6 -23 -33 -18 -50 8 -55 11 -55 38 0 20 4 25 18 21
9 -3 29 -8 44 -12z m1533 -4 c3 -5 -1 -10 -9 -10 -9 0 -16 5 -16 10 0 6 4 10
9 10 6 0 13 -4 16 -10z m-1660 -25 c0 -16 -8 -21 -42 -23 -37 -3 -43 0 -43 16
0 26 5 29 48 28 30 -1 37 -5 37 -21z m257 15 c27 -8 36 -16 35 -30 -2 -36 -87
-16 -87 20 0 23 2 23 52 10z m706 -29 c-3 -25 -6 -26 -64 -29 -59 -3 -62 -2
-66 23 -7 33 12 41 82 36 49 -3 51 -4 48 -30z m-1430 2 c2 -16 -2 -23 -15 -24
-19 -1 -93 -1 -105 0 -5 1 -8 12 -8 24 0 23 3 24 63 23 56 -1 62 -3 65 -23z
m157 -8 l0 -30 -60 0 c-60 0 -60 0 -63 31 l-3 30 63 0 63 -1 0 -30z m742 26
c7 -1 11 -13 10 -28 -2 -27 -5 -28 -47 -24 -56 4 -60 6 -60 38 0 24 2 25 43
19 23 -3 47 -5 54 -5z m363 -26 c0 -31 0 -31 -52 -29 -75 2 -75 2 -73 27 1 18
9 23 41 27 79 10 84 9 84 -25z m1144 20 c3 -9 0 -18 -7 -20 -26 -10 -72 9 -62
26 10 15 62 10 69 -6z m-2574 -20 c0 -28 1 -27 -55 -27 -79 0 -82 1 -87 27 -5
25 -5 25 68 25 72 0 74 -1 74 -25z m488 3 c-3 -21 -13 -23 -93 -19 -8 1 -15
10 -15 21 0 18 7 20 56 20 51 0 55 -2 52 -22z m748 -10 c-3 -33 -3 -33 -52
-29 -57 4 -58 4 -60 36 -1 24 2 25 57 25 l57 0 -2 -32z m864 16 c0 -8 -4 -12
-10 -9 -5 3 -10 10 -10 16 0 5 5 9 10 9 6 0 10 -7 10 -16z m-2498 -21 c27 -24
22 -29 -24 -29 -41 1 -53 13 -41 39 7 13 46 7 65 -10z m221 2 c9 -21 0 -23
-81 -22 -62 1 -72 3 -72 19 0 16 9 18 74 18 56 0 75 -4 79 -15z m927 -46 c0
-13 -7 -19 -24 -19 -25 0 -43 17 -40 38 1 6 2 16 3 21 2 18 61 -20 61 -40z
m1263 42 c12 -1 8 -38 -5 -49 -24 -19 -95 -23 -109 -6 -26 31 31 67 91 58 8
-1 18 -3 23 -3z m-167 -58 c-4 -23 -65 -46 -83 -31 -21 17 -12 51 17 58 31 8
69 -7 66 -27z m411 -30 c-4 -3 -32 -8 -62 -10 -55 -4 -56 -4 -53 19 2 18 14
27 53 40 l50 16 9 -29 c5 -16 6 -32 3 -36z m-1400 32 c1 -6 -1 -16 -6 -24 -13
-20 -65 0 -69 26 -3 18 1 19 34 14 21 -3 39 -11 41 -16z m-225 -20 c3 -18 -3
-19 -64 -20 -64 -1 -68 1 -68 22 0 20 6 22 58 25 64 3 69 1 74 -27z m346 26
c25 -1 32 -5 32 -20 0 -42 -9 -49 -48 -40 -20 4 -38 8 -39 9 -2 0 -7 0 -13 0
-5 0 -10 13 -10 30 0 26 3 29 23 26 12 -3 37 -5 55 -5z m718 -6 c10 -25 -19
-47 -69 -52 -39 -5 -47 -2 -57 17 -19 36 -7 46 59 49 49 2 63 -1 67 -14z m694
-5 c0 -24 -41 -28 -59 -7 -14 18 -4 27 31 27 21 0 28 -5 28 -20z m114 5 c-7
-17 -20 -20 -28 -6 -7 10 3 21 20 21 8 0 11 -6 8 -15z m-2259 -5 c3 -5 1 -19
-5 -30 -8 -15 -20 -19 -51 -18 -90 3 -89 58 2 58 26 0 51 -4 54 -10z m200 -14
c0 -17 -8 -20 -68 -21 -71 -1 -99 7 -82 24 13 12 38 16 100 16 43 0 50 -3 50
-19z m-350 -5 c9 -22 -5 -30 -58 -32 -50 -3 -71 8 -62 33 8 20 112 20 120 -1z
m1065 11 c9 -4 15 -13 14 -19 -1 -7 -2 -18 -3 -24 -1 -14 -103 -1 -113 14 -18
28 -8 37 40 36 26 0 54 -3 62 -7z m141 -1 c20 -1 28 -7 31 -26 5 -24 4 -25
-51 -25 -51 0 -57 2 -58 22 -2 25 12 37 36 33 9 -2 28 -4 42 -4z m219 -11 c9
-17 7 -22 -15 -30 -14 -6 -43 -13 -65 -16 -32 -5 -40 -3 -49 14 -20 38 -4 52
60 52 48 0 60 -3 69 -20z m-1770 -20 c0 -21 -3 -22 -65 -22 -56 1 -55 0 -55
21 0 16 9 19 60 20 54 1 60 -1 60 -19z m180 -1 c0 -17 -8 -19 -70 -19 -64 0
-70 2 -61 18 7 13 24 17 70 19 54 1 61 -1 61 -18z m2176 -4 c8 -32 4 -36 -43
-41 -21 -3 -46 -6 -56 -9 -23 -5 -34 22 -16 40 13 13 68 32 96 34 7 1 15 -10
19 -24z m-1368 -11 c12 -8 22 -12 22 -9 0 3 9 1 20 -5 25 -13 26 -30 1 -30
-38 0 -81 22 -81 41 0 23 9 24 38 3z m1210 -16 c19 -19 15 -27 -24 -43 -49
-20 -71 -19 -79 6 -8 25 -5 29 37 39 48 11 53 11 66 -2z m-1327 -8 c15 -9 17
-15 9 -30 -13 -23 -20 -25 -44 -7 -11 8 -15 19 -10 30 7 20 17 21 45 7z m312
-10 c4 -3 5 -14 2 -22 -5 -13 -13 -14 -37 -8 -37 11 -60 29 -52 41 6 10 73 2
87 -11z m-392 -6 c16 -19 -18 -31 -81 -30 -49 1 -55 3 -58 24 -3 21 -1 22 63
20 37 -1 71 -8 76 -14z m537 -15 c-2 -31 -3 -31 -47 -25 -52 7 -53 8 -45 29 3
10 21 17 47 20 23 2 43 4 45 5 1 1 1 -12 0 -29z m704 22 c4 0 12 -10 18 -21
13 -24 -7 -36 -68 -43 -51 -6 -88 17 -78 49 5 17 14 20 64 18 31 -1 60 -2 64
-3z m-2062 -21 c8 -15 6 -21 -9 -30 -48 -25 -108 1 -76 34 23 23 72 21 85 -4z
m448 -10 c-2 -20 -9 -26 -34 -28 -37 -4 -78 33 -54 48 8 5 32 8 53 7 34 -2 37
-5 35 -27z m196 10 c10 -10 -21 -19 -79 -21 -60 -2 -65 -1 -65 22 0 20 4 21
67 15 37 -4 72 -11 77 -16z m890 3 c-4 -52 -1 -50 -56 -47 -29 1 -56 3 -60 3
-3 1 -5 9 -3 19 2 9 4 22 4 28 1 8 22 11 59 10 39 -1 57 -5 56 -13z m956 -3
c0 -13 -7 -20 -19 -20 -11 0 -26 -3 -35 -6 -26 -10 -18 10 12 28 35 23 42 22
42 -2z m-2337 -9 c20 -20 -12 -39 -58 -37 -55 2 -79 21 -52 40 19 15 95 12
110 -3z m165 -3 c-3 -20 -10 -23 -53 -26 -57 -3 -102 19 -75 38 8 5 41 10 73
10 55 0 58 -1 55 -22z m1569 6 c11 -30 -11 -49 -62 -52 -73 -5 -98 4 -89 31
10 32 22 37 87 37 44 0 59 -4 64 -16z m-888 -28 c11 -13 10 -17 -3 -22 -26
-10 -46 3 -46 31 0 22 3 24 18 16 10 -5 24 -17 31 -25z m689 2 c-2 -27 -7 -32
-25 -31 -13 0 -36 1 -53 2 -26 1 -30 5 -30 31 0 30 0 30 56 30 l55 0 -3 -32z
m861 -15 c-10 -11 -14 -11 -20 -1 -10 17 -2 28 17 21 11 -4 12 -8 3 -20z
m-1407 -7 c22 -32 -15 -55 -68 -42 -26 7 -32 34 -12 54 14 14 69 6 80 -12z
m1169 8 c15 -19 6 -29 -48 -47 -36 -12 -44 -12 -54 -1 -6 8 -9 21 -5 29 11 30
86 44 107 19z m-1433 -31 c-6 -30 -88 -38 -88 -8 0 16 12 20 58 23 27 2 33 -1
30 -15z m1549 -17 c-4 -9 -18 -14 -38 -14 l-32 1 29 23 c29 24 52 19 41 -10z
m-2037 -1 c11 -29 4 -35 -41 -35 -46 0 -79 14 -79 35 0 17 15 22 69 21 34 -1
46 -6 51 -21z m926 14 c20 -16 18 -47 -3 -51 -22 -5 -95 10 -107 22 -5 5 -6
15 -3 22 6 18 94 23 113 7z m835 1 c18 0 9 -27 -13 -38 -51 -26 -118 -19 -118
12 0 9 10 18 23 21 44 9 72 12 85 9 8 -2 18 -4 23 -4z m-1593 -9 c6 -1 12 -8
12 -16 0 -12 -14 -15 -64 -15 -61 0 -84 9 -72 28 4 6 64 8 124 3z m195 -5 c8
-20 -7 -24 -83 -22 -53 1 -65 4 -68 19 -3 15 5 17 71 17 55 0 76 -4 80 -14z
m-681 -14 c8 -8 3 -14 -17 -22 -36 -14 -71 -6 -84 19 -10 17 -6 18 40 16 28
-1 55 -7 61 -13z m177 4 c18 -22 -15 -35 -74 -30 -47 5 -70 18 -59 36 9 14
121 9 133 -6z m1204 -1 c9 -4 17 -13 17 -21 0 -10 -14 -14 -49 -14 -54 0 -70
12 -50 36 12 14 44 14 82 -1z m529 -7 c15 -25 1 -33 -61 -36 -99 -5 -122 34
-29 48 53 8 79 4 90 -12z m-957 -15 c22 -3 31 -11 32 -25 2 -17 -3 -19 -25
-15 -56 11 -82 26 -76 42 4 10 13 14 23 10 9 -4 30 -9 46 -12z m613 8 c1 -1 2
-9 2 -20 0 -15 -8 -19 -50 -20 -27 0 -61 4 -76 9 -22 9 -24 13 -13 26 10 12
26 15 73 10 34 -3 62 -5 64 -5z m176 -7 c9 -22 8 -22 -55 -30 -29 -3 -57 -8
-61 -10 -11 -7 -20 15 -13 36 5 17 15 20 65 20 44 0 59 -4 64 -16z m-929 -44
c0 -12 -13 -15 -60 -15 -33 0 -68 4 -78 8 -35 13 -8 23 65 22 58 0 73 -3 73
-15z m296 0 c34 0 39 -3 39 -24 0 -23 -1 -23 -52 -14 -48 8 -78 28 -78 50 0 4
12 3 26 -2 14 -6 43 -10 65 -10z m1066 -7 c16 -21 17 -20 -37 -26 -25 -2 -53
-8 -62 -12 -14 -6 -18 -2 -18 18 0 44 87 59 117 20z m-1981 8 c12 -1 25 -8 28
-17 5 -13 0 -15 -36 -10 -24 3 -55 5 -69 5 -15 1 -30 8 -33 16 -5 13 2 15 42
11 26 -2 57 -5 68 -5z m262 -10 c3 -8 -13 -11 -55 -10 -64 3 -85 9 -60 18 28
10 111 4 115 -8z m-444 0 c5 -1 6 -4 2 -8 -10 -11 -56 -15 -56 -5 0 14 10 20
28 17 9 -2 21 -4 26 -4z m2017 -7 c11 -14 10 -19 -10 -35 -13 -11 -33 -20 -45
-21 -11 0 -28 -2 -36 -3 -28 -2 -68 16 -66 31 3 22 18 32 56 37 71 8 88 7 101
-9z m475 -2 c-3 -5 -38 -31 -77 -57 -53 -35 -109 -61 -208 -93 -75 -25 -130
-47 -124 -49 7 -3 43 5 80 18 123 41 238 18 131 -26 -32 -13 -81 -19 -188 -22
-145 -5 -174 -12 -163 -39 7 -18 80 -18 178 0 73 13 164 14 184 2 20 -13 12
-46 -13 -56 -14 -5 -125 -12 -248 -15 -242 -6 -270 -8 -338 -30 -59 -18 -51
-19 185 -20 199 -1 310 -9 373 -25 26 -7 41 -4 78 16 51 27 61 26 45 -4 -8
-15 -8 -22 2 -25 7 -4 6 -6 -4 -6 -9 -1 -24 -11 -33 -23 -9 -13 -14 -16 -10
-8 6 11 2 11 -13 -2 -11 -10 -25 -18 -31 -18 -6 0 -17 -6 -24 -12 -31 -30
-350 -169 -418 -183 -8 -2 -49 -12 -90 -22 -45 -12 -99 -18 -135 -16 -191 9
-384 9 -447 -2 -67 -12 -79 -11 -192 15 -193 45 -391 120 -475 179 -15 11 -31
18 -34 14 -4 -3 -9 2 -13 11 -3 9 -12 16 -20 16 -8 0 -14 5 -14 10 0 6 -4 10
-10 10 -5 0 -30 16 -55 35 -25 19 -53 38 -62 43 -8 5 -15 22 -15 38 0 36 -13
53 -36 47 -29 -7 -92 26 -112 59 -23 38 -18 48 10 23 23 -20 22 -20 215 -30
72 -3 146 -8 165 -10 103 -11 290 -15 290 -6 0 14 -25 19 -105 21 -38 2 -92 4
-120 5 -27 1 -115 6 -195 10 -80 4 -164 8 -188 9 -36 1 -48 7 -78 40 -19 21
-33 41 -30 44 3 3 61 6 128 8 68 1 135 3 151 3 l27 1 -21 21 c-19 19 -30 20
-189 17 -167 -3 -169 -3 -179 20 -10 21 -9 22 37 22 123 1 560 2 582 1 20 -1
46 -27 120 -121 81 -102 120 -139 120 -114 0 9 -37 58 -86 116 -44 52 -84 117
-84 138 0 31 152 -20 192 -65 33 -39 163 -84 318 -111 103 -18 389 -25 495
-11 251 31 528 108 730 202 35 16 48 18 41 7z m-1216 -20 c37 3 40 2 40 -21 0
-22 -3 -23 -37 -17 -21 3 -46 6 -55 6 -13 0 -18 8 -18 26 0 22 2 24 15 14 8
-7 32 -10 55 -8z m-264 -26 c210 -59 327 -80 459 -80 108 -1 271 7 365 18 19
3 62 7 95 10 81 8 180 27 218 42 13 4 17 1 17 -15 0 -12 -1 -21 -2 -21 -2 0
-59 -11 -128 -24 -234 -46 -524 -71 -611 -52 -13 3 -42 7 -64 10 -210 26 -428
82 -472 121 -38 33 -22 32 123 -9z m444 7 c0 -25 -21 -30 -64 -13 -37 14 -23
35 24 35 35 0 40 -3 40 -22z m362 9 c6 -6 9 -15 5 -18 -8 -8 -135 -21 -159
-16 -17 3 -25 32 -12 45 11 11 153 2 166 -11z m478 1 c0 -23 -25 -42 -41 -32
-18 11 -18 32 0 40 25 10 41 6 41 -8z m-702 -3 c6 0 12 -9 12 -21 0 -18 -5
-20 -47 -17 -42 3 -48 6 -49 26 -1 21 2 23 35 18 20 -3 42 -5 49 -6z m-3 -721
c118 -15 145 -19 290 -49 210 -43 345 -79 785 -211 64 -19 136 -37 175 -44 11
-2 38 -7 60 -10 22 -4 51 -9 65 -12 14 -2 84 -6 155 -7 l130 -3 1 -204 c1
-143 -2 -206 -10 -211 -6 -4 -90 -7 -186 -6 -176 1 -341 21 -440 52 -25 8
-144 46 -265 85 -510 162 -752 215 -985 214 -221 -1 -377 -40 -940 -238 -286
-101 -478 -140 -685 -140 -89 0 -166 5 -191 13 l-41 12 1 207 1 208 45 -5 c97
-11 299 -3 400 14 63 11 206 51 360 101 405 133 593 184 827 224 118 20 331
24 448 10z m-2360 -117 c128 -42 232 -59 404 -67 57 -2 106 -6 108 -9 6 -6
-97 -62 -147 -79 -25 -8 -63 -19 -85 -23 l-40 -9 0 -155 c0 -132 -2 -156 -15
-161 -41 -17 -357 58 -367 87 -3 10 13 30 114 135 l63 66 -43 44 c-39 41 -106
154 -122 207 -7 23 -6 23 17 9 12 -9 64 -29 113 -45z m4424 21 c-24 -64 -77
-151 -117 -192 l-42 -45 39 -40 c72 -74 141 -151 141 -158 0 -9 -91 -43 -169
-63 -66 -17 -113 -24 -176 -28 l-40 -2 -1 155 c-1 85 -2 160 -3 165 0 6 -17
12 -37 13 -64 5 -234 78 -234 102 0 3 44 6 98 7 85 2 176 11 292 29 46 7 212
63 225 75 5 5 15 9 22 9 10 0 10 -6 2 -27z"/>
<path d="M2337 4852 c-46 -3 -47 -4 -45 -33 2 -29 3 -29 18 -10 8 11 26 23 40
26 l25 6 3 -110 c3 -95 1 -110 -14 -119 -16 -9 -1 -9 101 -2 19 1 18 2 -2 10
-21 8 -23 16 -24 82 -1 40 -2 86 -3 101 -5 52 42 53 72 2 10 -18 11 -16 9 15
l-3 35 -64 0 c-36 0 -86 -1 -113 -3z"/>
<path d="M2599 4846 c10 -12 10 -45 -4 -171 -1 -16 -3 -36 -4 -42 0 -7 -8 -13
-18 -13 -39 0 -1 -10 58 -15 35 -3 81 -8 102 -10 33 -3 38 -1 43 23 3 15 8 34
10 42 2 8 -5 3 -17 -12 -23 -31 -81 -47 -103 -29 -10 8 -12 25 -9 54 3 23 7
43 8 45 7 9 35 -14 44 -36 9 -25 10 -23 11 18 1 25 3 56 6 70 l4 25 -15 -26
c-8 -15 -23 -29 -34 -32 -17 -4 -18 0 -14 42 6 54 5 54 38 54 29 0 65 -28 66
-52 0 -9 5 -3 10 14 13 44 18 42 -149 60 -36 3 -42 2 -33 -9z"/>
<path d="M2165 4830 c-17 -7 -17 -9 -3 -9 10 -1 20 -11 23 -23 33 -148 33
-172 0 -194 -15 -10 -34 -14 -49 -10 -25 6 -25 7 -56 159 -6 28 -4 41 7 53 14
14 12 15 -23 8 -56 -10 -92 -22 -72 -23 18 -1 31 -38 44 -124 9 -69 35 -97 88
-97 46 0 90 26 101 58 3 10 -1 56 -9 102 -11 60 -12 88 -4 97 8 10 6 13 -8 12
-11 0 -28 -4 -39 -9z"/>
<path d="M1855 4761 c-27 -9 -73 -25 -102 -35 l-52 -17 12 -32 11 -32 8 31 c5
20 16 34 30 37 12 4 23 5 24 4 1 -1 16 -46 34 -100 24 -73 29 -101 21 -111 -9
-11 0 -10 42 2 50 15 53 17 37 32 -10 8 -31 56 -48 107 -25 77 -27 93 -15 97
27 11 51 6 57 -10 10 -26 18 -10 10 20 -7 30 -4 30 -69 7z"/>
<path d="M3040 4767 c-84 -29 -109 -160 -41 -215 88 -71 206 -27 218 83 7 58
-17 102 -70 126 -49 22 -60 22 -107 6z m87 -13 c32 -9 43 -50 27 -109 -7 -27
-13 -53 -14 -56 0 -4 -12 -18 -26 -32 -27 -27 -57 -28 -81 -4 -30 29 -10 141
34 189 17 19 26 21 60 12z"/>
<path d="M3326 4690 c9 -9 2 -34 -28 -103 -22 -51 -47 -98 -56 -104 -18 -15
-19 -13 31 -36 46 -21 46 -21 41 1 -3 9 4 37 14 60 18 40 21 42 36 27 9 -9 16
-28 16 -43 1 -26 1 -26 16 8 9 19 20 46 25 60 10 23 9 23 -9 7 -19 -17 -44
-22 -54 -11 -6 5 22 77 35 90 3 3 19 -2 36 -11 21 -11 34 -26 38 -46 6 -32 16
-29 27 8 6 18 -1 25 -51 48 -99 46 -129 58 -117 45z"/>
<path d="M1580 4656 c-44 -20 -50 -25 -31 -28 19 -2 31 -20 63 -92 22 -50 37
-98 35 -107 -4 -15 1 -15 47 4 28 12 44 23 35 25 -20 4 -104 185 -96 207 4 8
5 15 4 15 -1 -1 -27 -11 -57 -24z"/>
<path d="M1379 4549 c-46 -28 -85 -52 -87 -54 -2 -2 3 -16 12 -32 l15 -28 1
26 c0 23 35 69 43 58 17 -20 107 -179 107 -188 0 -6 -5 -11 -12 -11 -6 0 -9
-3 -5 -6 3 -3 27 7 53 22 35 21 43 29 30 34 -21 7 -119 169 -112 186 6 16 39
18 66 4 16 -9 17 -7 6 15 -6 14 -16 25 -22 25 -6 0 -49 -23 -95 -51z"/>
<path d="M3625 4504 c-16 -25 -16 -25 5 -14 30 16 73 4 68 -18 -3 -9 -29 -52
-59 -95 -39 -56 -59 -76 -71 -73 -26 6 -23 3 26 -32 50 -36 58 -39 50 -17 -6
14 102 185 116 185 17 0 39 -38 35 -61 l-4 -24 19 24 c11 13 20 26 20 30 -1 8
-167 121 -179 121 -5 0 -16 -12 -26 -26z"/>
<path d="M1210 4432 c0 -5 -11 -13 -25 -16 -65 -16 -90 -99 -40 -132 20 -13
39 -15 89 -10 52 5 67 3 80 -10 12 -12 14 -20 5 -35 -18 -34 -61 -43 -103 -22
l-29 15 22 -31 c25 -34 41 -47 41 -32 0 6 15 17 34 25 63 26 85 91 46 134 -22
24 -59 28 -123 13 -37 -9 -67 4 -67 29 0 33 62 51 101 29 18 -9 19 -8 10 9
-13 24 -41 48 -41 34z"/>
<path d="M3886 4348 c6 -33 -125 -174 -152 -164 -10 3 1 -12 26 -36 25 -23 61
-56 80 -74 l35 -33 27 23 26 23 -38 -1 c-28 0 -46 6 -64 23 l-25 24 31 40 c29
36 33 38 44 22 9 -12 10 -23 4 -36 -17 -30 -11 -34 12 -8 12 13 33 36 46 51
l25 27 -31 -11 c-49 -19 -59 1 -22 42 25 28 34 32 48 24 29 -19 45 -60 31 -86
-10 -20 -8 -20 17 5 l29 27 -50 48 c-28 26 -62 57 -76 70 l-26 23 3 -23z"/>
<path d="M1006 4271 c-27 -28 -27 -28 -4 -24 17 3 34 -7 67 -41 34 -35 40 -45
24 -42 -11 3 -56 7 -99 11 -79 7 -79 7 -108 -23 -23 -25 -25 -30 -10 -28 11 2
23 1 28 -2 6 -3 33 -6 60 -7 28 -1 92 -5 141 -9 l90 -8 -84 85 c-58 59 -82 90
-78 101 9 22 5 20 -27 -13z"/>
<path d="M4034 4101 c-74 -33 -94 -121 -44 -191 24 -33 88 -66 102 -52 6 6 -3
12 -21 15 -37 8 -71 43 -71 75 0 54 78 122 139 122 52 0 86 -63 60 -111 -9
-18 -8 -19 8 -11 25 14 62 55 42 47 -9 -3 -20 9 -33 36 -36 75 -108 103 -182
70z"/>
<path d="M930 4102 c0 -4 18 -24 39 -44 50 -46 75 -84 65 -100 -4 -7 7 0 24
16 38 35 38 36 12 29 -15 -4 -35 9 -76 51 -56 57 -64 62 -64 48z"/>
<path d="M789 4038 c-38 -49 -42 -59 -25 -52 18 7 176 -114 176 -135 0 -18 22
0 52 42 20 28 20 29 2 23 -12 -3 -30 4 -51 22 -17 15 -52 43 -77 62 -24 19
-46 43 -48 53 -2 14 -8 11 -29 -15z"/>
<path d="M4305 3911 c6 -11 -34 -42 -123 -95 -54 -33 -65 -36 -80 -24 -16 12
-16 11 -1 -12 9 -14 22 -36 29 -49 6 -13 15 -19 19 -14 3 6 25 22 49 37 l42
26 20 -32 c11 -18 20 -36 20 -40 0 -13 -71 -50 -89 -45 -16 4 -15 0 6 -39 28
-49 41 -62 39 -37 -1 21 161 125 186 119 14 -3 12 5 -10 45 -18 31 -28 42 -30
31 -2 -9 -19 -28 -39 -40 -35 -23 -36 -23 -53 -5 -36 37 -33 56 11 82 34 19
43 20 50 10 5 -8 9 -10 9 -6 0 11 -50 97 -57 97 -2 0 -2 -4 2 -9z"/>
<path d="M576 3724 c-26 -47 -45 -88 -42 -91 3 -4 6 -1 6 5 0 20 17 14 110
-39 57 -32 90 -56 90 -67 0 -21 13 -2 64 91 40 72 39 84 -6 108 -18 10 -18 9
-4 -19 18 -34 5 -102 -19 -102 -24 0 -85 33 -85 46 0 16 28 26 54 19 17 -5 18
-4 6 5 -20 14 -88 50 -95 50 -4 0 1 -7 9 -16 15 -14 23 -54 11 -54 -17 0 -85
42 -85 53 1 29 37 60 71 59 l33 -1 -30 20 c-16 10 -32 19 -35 19 -3 0 -27 -39
-53 -86z"/>
<path d="M4465 3618 c-14 -30 -183 -102 -202 -87 -16 14 -16 11 -1 -31 10 -31
12 -32 19 -12 8 20 132 86 150 80 5 -2 -17 -52 -47 -111 -31 -60 -53 -111 -51
-113 3 -3 36 9 73 26 128 58 138 62 153 47 14 -14 14 -5 0 26 -11 24 -11 24
-32 5 -23 -20 -107 -61 -107 -52 0 3 18 38 40 78 44 80 46 90 27 134 -12 30
-13 30 -22 10z"/>
<path d="M482 3507 c-23 -24 -76 -156 -67 -165 3 -3 5 0 5 6 0 7 7 12 15 12
24 0 195 -71 195 -81 0 -24 18 -4 33 38 10 26 13 43 6 36 -8 -8 -22 -7 -56 4
-44 15 -53 36 -17 41 69 10 106 26 119 53 22 41 18 49 -12 34 -16 -8 -47 -17
-70 -21 -38 -6 -43 -4 -43 13 0 50 -71 70 -108 30z m52 -37 c19 0 35 -42 25
-67 l-8 -23 -43 19 c-24 10 -44 25 -46 33 -4 21 27 51 45 44 8 -3 20 -6 27 -6z"/>
<path d="M4454 3300 c-67 -30 -91 -100 -60 -175 54 -127 253 -76 241 61 -9
104 -91 155 -181 114z m152 -61 c20 -16 17 -63 -4 -82 -24 -22 -97 -47 -137
-47 -32 0 -56 19 -68 52 -20 57 156 121 209 77z"/>
<path d="M408 3232 c-52 -31 -75 -125 -44 -180 30 -56 115 -79 175 -48 84 44
88 178 7 227 -38 23 -102 24 -138 1z m105 -56 c74 -27 96 -67 57 -106 -50 -50
-210 3 -210 69 0 6 9 20 20 31 24 24 76 26 133 6z"/>
<path d="M4662 2993 c-6 -10 -13 -16 -16 -14 -6 3 -132 -8 -170 -15 -11 -2
-26 2 -33 8 -14 12 -15 13 2 -136 3 -28 8 -52 11 -55 8 -9 74 -8 74 1 0 4 -6
8 -14 8 -25 0 -55 34 -60 68 -6 41 8 47 115 57 41 4 76 8 78 11 2 2 11 -1 21
-6 15 -8 16 -4 12 38 -5 56 -7 59 -20 35z"/>
<path d="M508 2909 c28 -18 32 -26 32 -65 0 -43 -4 -48 -40 -46 -53 2 -175 14
-182 18 -5 3 -5 10 -2 16 4 6 3 8 -3 5 -5 -3 -10 -30 -11 -59 -2 -33 1 -48 6
-40 7 11 30 12 103 6 52 -3 104 -10 117 -15 20 -8 22 -6 23 29 0 20 3 65 5 98
5 58 4 62 -18 68 -13 3 -32 6 -43 6 -16 0 -14 -4 13 -21z"/>
<path d="M4545 2722 c-116 -26 -130 -202 -19 -248 43 -18 68 -18 110 2 84 40
91 177 11 228 -25 16 -72 25 -102 18z m121 -87 c32 -20 33 -68 2 -89 -27 -20
-132 -21 -168 -3 -36 18 -49 61 -26 86 10 11 28 22 40 25 38 8 127 -2 152 -19z"/>
<path d="M464 2658 c-3 -4 1 -8 9 -8 28 0 57 -34 60 -73 5 -44 3 -45 -126 -51
-73 -3 -89 -1 -97 13 -9 15 -9 -3 0 -99 1 -11 4 -10 9 4 6 17 21 20 110 23 61
3 107 1 114 -6 10 -8 12 10 9 82 -1 51 -5 97 -7 103 -4 14 -74 24 -81 12z"/>
<path d="M4483 2390 c-47 -28 -65 -62 -70 -134 l-6 -65 42 -11 c27 -7 41 -17
42 -28 1 -27 15 14 23 68 6 38 5 42 -6 28 -17 -22 -74 -13 -81 12 -8 31 29 80
60 81 112 4 179 -38 166 -104 -6 -28 -45 -67 -69 -67 -8 0 -14 -5 -14 -12 0
-6 2 -9 6 -6 3 3 20 2 39 -2 24 -5 32 -4 29 4 -3 7 2 29 11 49 33 79 7 165
-60 193 -46 19 -74 18 -112 -6z"/>
<path d="M515 2391 c-33 -3 -36 -5 -16 -10 29 -8 60 -47 63 -80 3 -20 -3 -26
-31 -33 -18 -5 -43 -8 -55 -6 -20 3 -20 4 7 32 l29 29 -49 -8 c-60 -9 -91 -24
-50 -25 26 0 47 -23 34 -37 -3 -3 -26 -8 -52 -10 -42 -5 -45 -4 -46 18 -2 40
2 53 23 76 l21 22 -33 -9 c-18 -5 -34 -11 -36 -13 -2 -2 4 -46 14 -98 10 -52
21 -88 23 -81 8 25 202 61 224 42 14 -12 14 4 -1 70 -3 13 -7 38 -9 56 -8 61
-16 69 -60 65z"/>
<path d="M374 2077 c3 -11 9 -31 13 -45 6 -25 6 -25 14 -4 7 19 13 21 71 15
35 -3 69 -6 76 -6 18 -1 14 -6 -44 -60 -51 -47 -74 -58 -74 -35 0 6 -2 9 -5 6
-3 -2 2 -27 10 -55 l15 -50 52 51 c29 28 75 71 102 94 27 23 47 44 45 46 -4 4
-54 11 -154 21 -75 8 -109 16 -118 29 -6 7 -7 4 -3 -7z"/>
<path d="M4351 2029 c-7 -23 -15 -48 -18 -58 -4 -12 -3 -13 5 -3 6 10 20 11
48 6 41 -7 83 -45 132 -118 26 -38 27 -38 32 -15 4 17 1 26 -10 30 -18 8 -80
75 -80 88 0 4 6 8 13 8 6 0 36 4 66 7 37 5 51 4 47 -3 -4 -6 -5 -11 -1 -11 6
0 21 37 32 78 5 22 4 25 -8 16 -21 -17 -145 -36 -185 -28 -19 3 -40 15 -48 25
-12 17 -14 16 -25 -22z"/>
<path d="M894 1289 l24 -50 -23 -47 c-13 -26 -22 -48 -20 -50 1 -1 25 6 54 17
l51 21 51 -21 c29 -11 53 -18 56 -16 2 3 -6 25 -19 51 l-22 46 22 46 c13 26
21 48 19 51 -3 2 -27 -5 -56 -16 -51 -21 -51 -21 -101 -1 -28 11 -53 20 -55
20 -2 0 6 -23 19 -51z"/>
<path d="M3924 1291 l26 -51 -25 -50 c-14 -27 -23 -50 -21 -50 3 0 30 9 59 20
l54 20 48 -20 c26 -11 49 -19 52 -17 2 2 -6 25 -17 50 l-21 47 21 47 c11 25
18 48 16 50 -2 3 -25 -5 -51 -16 -43 -19 -49 -19 -88 -5 -85 31 -82 32 -53
-25z"/>
<path d="M1360 993 c-8 -2 -21 -7 -29 -9 -8 -2 -12 -7 -9 -9 3 -3 22 1 44 9
35 13 30 21 -6 9z"/>
<path d="M3590 997 c3 -3 23 -12 45 -21 31 -13 37 -14 25 -3 -8 8 -28 18 -45
22 -16 3 -28 4 -25 2z"/>
<path d="M1391 952 c-49 -25 -46 -34 4 -14 28 11 62 22 75 25 15 3 9 4 -14 4
-21 -1 -50 -7 -65 -15z"/>
<path d="M3569 945 c35 -14 66 -24 68 -21 6 6 -64 36 -99 42 -22 3 -12 -4 31
-21z"/>
<path d="M3430 942 c0 -6 52 -25 160 -59 8 -2 0 6 -18 18 -33 22 -142 53 -142
41z"/>
<path d="M1474 930 c-29 -6 -94 -45 -94 -56 0 -2 13 2 29 11 29 15 98 39 136
48 13 3 9 5 -10 5 -16 0 -44 -3 -61 -8z"/>
<path d="M3337 909 c4 -4 19 -10 33 -12 14 -3 60 -18 103 -35 83 -32 90 -17 9
18 -46 21 -159 43 -145 29z"/>
<path d="M1539 896 c-40 -14 -112 -56 -107 -62 2 -2 33 8 68 23 36 14 85 32
110 39 l45 12 -40 1 c-22 0 -56 -6 -76 -13z"/>
<path d="M1611 864 c-44 -13 -126 -58 -137 -75 -3 -6 8 -3 26 6 43 22 101 43
180 66 l65 18 -46 -1 c-26 -1 -65 -7 -88 -14z"/>
<path d="M3251 876 c3 -3 18 -7 34 -10 41 -8 140 -43 189 -68 l41 -21 -20 22
c-34 39 -146 81 -214 81 -19 0 -32 -2 -30 -4z"/>
<path d="M3134 851 c3 -5 23 -12 43 -15 21 -4 70 -16 108 -27 69 -20 80 -24
139 -48 39 -16 43 -8 9 17 -41 29 -146 62 -217 68 -33 3 -67 7 -74 10 -7 2
-11 0 -8 -5z"/>
<path d="M1707 839 c-60 -12 -149 -51 -179 -79 l-23 -21 45 19 c51 22 193 67
255 81 l40 9 -45 0 c-25 0 -67 -4 -93 -9z"/>
<path d="M1914 4098 c16 -15 58 -100 114 -231 49 -115 93 -209 98 -209 5 0 39
66 76 148 115 257 127 279 155 296 28 17 28 17 -50 18 -51 0 -76 -4 -72 -10 4
-6 10 -8 15 -5 16 10 38 -24 32 -47 -3 -13 -29 -76 -57 -141 l-52 -118 -61
143 c-63 148 -65 162 -19 171 12 2 -29 5 -91 6 l-113 1 25 -22z"/>
<path d="M2417 4113 c40 -8 44 -25 44 -184 1 -259 4 -238 -33 -254 -31 -13
-24 -14 92 -14 93 1 117 3 93 10 -17 5 -34 17 -37 27 -8 25 -4 379 4 392 4 6
20 15 36 20 20 6 -10 8 -96 8 -69 0 -115 -3 -103 -5z"/>
<path d="M2678 4093 c-2 -16 -1 -45 1 -67 l3 -38 18 40 c21 47 44 62 94 62
l36 0 0 -200 c0 -180 -2 -200 -17 -209 -10 -5 -21 -8 -25 -8 -3 1 -10 -1 -14
-5 -4 -5 46 -8 112 -8 111 1 117 2 87 15 l-33 14 0 201 0 200 40 0 c43 0 90
-34 90 -64 0 -8 5 -18 10 -21 6 -4 10 17 10 54 l0 61 -204 0 -205 0 -3 -27z"/>
<path d="M2020 3560 c-9 -6 -9 -9 1 -12 20 -7 21 -176 1 -187 -11 -6 -5 -10
22 -13 33 -4 47 4 28 16 -10 6 -9 167 1 183 8 13 -36 23 -53 13z"/>
<path d="M2127 3562 c-16 -3 -16 -5 -4 -15 8 -7 34 -56 57 -109 24 -54 44 -98
45 -98 1 0 19 42 40 93 20 50 46 100 57 110 20 17 19 17 -18 16 -22 0 -33 -3
-26 -6 18 -7 15 -23 -17 -94 l-29 -64 -27 60 c-15 33 -27 70 -27 82 -1 22 -20
32 -51 25z"/>
<path d="M2402 3562 c-30 -2 -40 -7 -35 -15 4 -7 8 -50 8 -96 1 -66 -3 -85
-15 -90 -16 -6 104 -18 131 -13 9 2 22 16 29 30 l12 27 -24 -22 c-23 -22 -97
-33 -99 -15 0 4 -2 25 -3 48 l-2 41 35 -4 c19 -2 39 -9 43 -16 4 -7 8 3 8 23
0 23 -3 30 -9 22 -10 -17 -58 -23 -69 -8 -7 10 -8 28 -3 66 2 18 79 12 90 -7
9 -16 10 -16 11 3 0 24 -30 32 -108 26z"/>
<path d="M2809 3563 c-22 -5 -43 -46 -35 -69 3 -11 28 -34 56 -52 52 -34 62
-59 35 -82 -20 -17 -68 3 -83 33 -10 21 -11 20 -11 -9 -1 -30 2 -32 44 -38 60
-9 97 14 93 58 -2 22 -12 36 -38 52 -62 39 -83 63 -70 79 13 16 47 19 67 7 7
-4 16 -19 22 -32 9 -23 9 -22 9 13 -1 30 -5 37 -22 38 -12 0 -28 2 -36 3 -8 1
-22 1 -31 -1z"/>
<path d="M2954 3559 c-3 -5 0 -9 5 -9 7 0 11 -34 11 -91 0 -74 -3 -94 -16
-104 -15 -10 -14 -12 7 -9 13 1 33 3 44 3 15 1 17 4 7 10 -10 6 -13 33 -10
104 3 93 2 96 -20 100 -12 2 -25 0 -28 -4z"/>
<path d="M3066 3562 c-9 -2 -16 -12 -16 -23 0 -19 1 -19 16 -5 8 9 24 16 35
16 17 0 19 -8 20 -67 1 -38 1 -70 1 -73 1 -3 -2 -19 -5 -36 -6 -29 -5 -30 25
-26 16 3 26 7 20 11 -5 3 -10 48 -11 99 -2 86 -1 92 19 92 11 0 28 -8 39 -19
18 -18 19 -18 17 4 -1 22 -6 24 -72 27 -40 2 -79 2 -88 0z"/>
<path d="M1549 3551 c9 -6 14 -33 15 -82 3 -86 15 -115 53 -123 79 -17 113 18
113 114 0 38 3 75 6 84 4 10 1 16 -7 16 -11 0 -14 -20 -14 -85 0 -92 -9 -110
-57 -119 -45 -8 -62 22 -63 112 -1 44 3 80 9 84 6 4 -7 8 -29 8 -26 0 -35 -3
-26 -9z"/>
<path d="M1785 3546 c17 -12 19 -25 16 -97 -1 -46 -7 -87 -13 -90 -5 -3 0 -9
11 -12 22 -5 38 7 22 17 -9 6 -8 123 2 132 2 3 33 -29 67 -71 35 -41 65 -73
68 -70 3 2 5 44 6 92 0 48 5 94 9 101 6 9 -1 12 -25 11 -18 -1 -25 -3 -15 -6
14 -4 17 -16 17 -76 l-1 -72 -27 31 c-15 16 -44 51 -66 77 -27 34 -45 47 -64
47 -25 0 -25 -1 -7 -14z"/>
<path d="M2558 3554 c15 -7 17 -185 2 -200 -6 -6 2 -10 24 -9 21 0 31 4 27 10
-11 15 -8 88 4 91 6 2 25 -18 43 -45 24 -35 41 -50 61 -53 l28 -4 -33 33 c-50
50 -58 70 -35 83 28 14 35 47 18 74 -13 20 -24 23 -84 24 -37 1 -62 -1 -55 -4z
m93 -14 c37 -21 18 -80 -26 -80 -18 0 -22 6 -23 36 -2 55 9 65 49 44z"/>
<path d="M3260 3540 c56 -56 96 -159 68 -176 -15 -10 11 -22 33 -17 11 3 16
10 11 17 -18 28 -6 73 35 134 l42 62 -32 -1 c-18 0 -26 -3 -19 -6 6 -2 12 -10
12 -16 0 -13 -42 -77 -52 -77 -12 0 -49 73 -44 86 4 10 -5 14 -34 14 -40 0
-40 0 -20 -20z"/>
<path d="M1830 3140 c0 -5 5 -10 11 -10 5 0 7 5 4 10 -3 6 -8 10 -11 10 -2 0
-4 -4 -4 -10z"/>
<path d="M2117 1405 c20 -24 50 -50 67 -57 43 -17 120 -15 140 5 18 17 22 32
6 22 -14 -9 -138 22 -198 50 l-52 24 37 -44z"/>
<path d="M1785 1259 c-22 -10 -49 -19 -60 -19 -17 0 -17 -2 6 -14 44 -23 81
-28 112 -15 27 12 28 13 12 25 -17 13 -17 14 6 23 14 6 18 10 9 11 -8 1 -22 3
-30 4 -8 2 -33 -5 -55 -15z"/>
<path d="M1927 1134 c-27 -7 -51 -15 -54 -18 -3 -3 41 -5 98 -5 57 0 129 -4
159 -8 30 -5 71 -5 90 -2 19 4 31 7 25 8 -5 0 -48 8 -95 17 -117 21 -167 23
-223 8z"/>
<path d="M2587 1143 c-2 -1 -46 -3 -100 -5 -164 -4 -92 -21 105 -25 179 -3
235 2 240 22 3 9 -237 17 -245 8z"/>
<path d="M2423 1083 c7 -11 74 -17 157 -14 23 1 31 4 22 10 -18 11 -185 15
-179 4z"/>
<path d="M1912 1075 c3 -3 34 -7 69 -10 43 -3 59 -1 49 5 -15 10 -128 14 -118
5z"/>
<path d="M2439 1027 c4 -4 50 -6 102 -5 l94 3 -102 5 c-56 3 -99 1 -94 -3z"/>
<path d="M1906 1011 c14 -15 72 -22 79 -10 4 5 -4 9 -17 9 -13 0 -34 3 -48 6
-19 5 -22 4 -14 -5z"/>
<path d="M3012 748 c-16 -16 -2 -38 24 -38 17 0 24 6 24 19 0 21 -33 34 -48
19z"/>
<path d="M2388 744 c-22 -7 -42 -58 -34 -88 9 -35 43 -43 69 -18 19 20 19 22
3 47 -10 15 -23 24 -31 21 -23 -8 -28 12 -6 24 44 23 91 -5 91 -56 0 -38 -29
-64 -71 -64 -27 0 -57 -25 -45 -37 9 -10 277 -10 282 -1 5 7 -173 13 -233 8
-41 -3 -24 17 18 23 23 3 49 12 57 21 20 20 21 82 1 101 -16 17 -73 27 -101
19z m22 -85 c0 -30 -17 -38 -38 -17 -18 18 -15 46 6 51 26 5 32 -1 32 -34z"/>
<path d="M2707 723 c-4 -8 -12 -45 -22 -114 -7 -45 2 -53 85 -68 36 -7 75 -14
87 -17 24 -5 25 -3 43 99 11 61 9 89 -5 75 -3 -2 -10 -31 -16 -64 -17 -97 -16
-96 -57 -89 -20 3 -38 7 -40 10 -2 2 1 36 6 77 5 40 6 77 2 81 -11 12 -17 -1
-24 -48 -15 -96 -25 -114 -56 -95 -12 7 -11 28 6 133 4 26 0 35 -9 20z"/>
<path d="M2135 688 c-6 -14 10 -88 31 -142 5 -14 -6 -20 -58 -32 -50 -12 -51
-11 -71 69 -12 47 -24 77 -32 77 -11 0 -9 -17 7 -77 11 -43 24 -82 29 -87 10
-11 149 24 149 38 0 6 -5 27 -11 46 -5 19 -12 45 -15 57 -2 12 -8 32 -13 45
-8 20 -10 21 -16 6z"/>
<path d="M1842 660 c-37 -23 -55 -61 -49 -105 9 -69 48 -105 112 -105 55 0 91
34 76 72 -11 30 -36 42 -61 28 -26 -14 -30 -34 -15 -64 13 -24 12 -26 -9 -26
-58 0 -105 128 -64 177 11 14 29 18 27 6 -8 -51 27 -74 69 -47 25 17 23 49 -6
72 -22 17 -42 15 -80 -8z m81 -29 c6 -24 -14 -44 -37 -35 -16 6 -23 54 -10 67
11 10 41 -11 47 -32z m32 -126 c0 -33 -21 -41 -38 -14 -14 22 -1 51 20 47 13
-2 18 -13 18 -33z"/>
<path d="M2965 668 c-17 -50 -42 -158 -35 -153 5 3 13 27 19 53 18 86 26 100
55 95 31 -6 30 0 6 -93 -11 -41 -20 -76 -20 -77 0 -2 6 -3 13 -3 7 0 21 31 32
78 16 62 23 76 38 74 34 -6 16 7 -25 18 -24 6 -51 13 -61 16 -9 3 -19 -1 -22
-8z"/>
<path d="M1633 633 c-18 -6 -16 -40 2 -47 12 -4 45 17 45 29 0 9 -36 22 -47
18z"/>
<path d="M3151 621 c-36 -9 -64 -53 -65 -103 -1 -35 3 -44 23 -54 30 -15 59 0
68 34 7 30 -16 55 -51 55 -22 0 -24 2 -15 18 12 22 41 39 68 39 25 0 61 -37
56 -59 -11 -56 -21 -75 -46 -90 l-29 -18 61 -18 c67 -21 75 -29 60 -68 -8 -21
-7 -27 2 -27 8 0 27 44 47 108 18 59 35 113 38 120 2 6 -2 12 -9 12 -9 0 -23
-31 -37 -78 l-24 -79 -45 15 c-39 13 -43 17 -30 27 37 27 49 111 19 138 -25
23 -64 35 -91 28z m-1 -105 c0 -13 -7 -29 -16 -36 -12 -11 -18 -11 -30 2 -13
12 -14 20 -5 37 16 30 51 28 51 -3z"/>
<path d="M1746 498 c13 -40 23 -76 21 -81 -1 -5 -24 -17 -49 -27 l-47 -18 -10
27 c-6 14 -18 50 -27 79 -15 48 -34 70 -34 39 0 -18 41 -140 50 -150 7 -8 125
28 143 43 11 9 -45 160 -60 160 -8 0 -4 -23 13 -72z"/>
<path d="M1456 471 c-18 -20 -17 -40 8 -111 17 -50 18 -46 -14 -58 -24 -9 -26
-6 -51 66 -14 42 -31 78 -37 80 -18 6 -15 -16 15 -99 l27 -77 38 14 c31 11 42
11 63 0 l25 -13 -23 -20 c-12 -11 -35 -23 -51 -27 -26 -6 -28 -5 -23 14 3 14
1 20 -6 17 -7 -2 -13 -11 -15 -20 -9 -48 107 -17 133 35 8 17 15 32 15 33 0 1
-12 0 -27 -2 -27 -4 -26 -4 6 13 18 10 38 28 43 40 14 31 2 90 -24 114 -28 25
-79 26 -102 1z m75 -1 c13 0 40 -46 45 -78 5 -31 -14 -54 -53 -66 -18 -6 -23
-1 -36 41 -25 81 -26 92 -9 103 10 5 23 7 30 5 8 -3 18 -5 23 -5z"/>
<path d="M3581 459 c-15 -44 -14 -46 14 -53 28 -7 29 -13 16 -49 -12 -30 -46
-44 -66 -27 -20 16 -19 69 0 76 8 4 15 10 15 15 0 6 -9 5 -20 -1 -28 -15 -36
-55 -17 -84 32 -47 89 -38 113 20 14 34 16 35 37 21 43 -29 10 -97 -47 -97
-17 0 -52 7 -78 14 -42 13 -48 13 -62 -3 -17 -18 -12 -31 11 -31 7 0 13 7 13
16 0 13 6 15 33 9 92 -20 106 -21 135 -9 39 16 53 66 26 95 -9 10 -23 19 -30
19 -20 0 -25 16 -14 44 8 23 12 25 35 16 15 -6 24 -6 20 -1 -4 8 -101 41 -118
41 -3 0 -10 -14 -16 -31z m51 -19 c-3 -31 -8 -35 -31 -24 -15 7 -17 14 -10 32
12 32 45 25 41 -8z"/>
<path d="M4220 421 c-9 -3 -15 -13 -15 -21 0 -18 33 -26 48 -11 15 15 -12 41
-33 32z"/>
<path d="M1220 398 c-19 -5 -54 -13 -77 -18 -78 -17 -104 -47 -97 -115 4 -46
41 -89 67 -79 27 10 38 39 27 68 -7 20 -16 26 -40 26 -16 0 -30 -4 -30 -9 0
-5 7 -8 16 -7 9 0 22 -8 30 -20 12 -17 12 -23 0 -39 -13 -18 -14 -18 -31 2
-19 23 -29 74 -21 109 6 21 70 63 81 53 3 -4 1 -17 -3 -30 -16 -41 14 -119 44
-119 10 0 9 5 -5 19 -37 37 -35 121 4 121 43 0 74 -108 38 -129 -10 -5 -15
-12 -11 -16 14 -14 48 35 48 69 0 38 -44 101 -62 89 -7 -3 -8 -1 -4 5 9 15 51
15 77 1 44 -23 54 -107 16 -131 -7 -4 -7 -8 -2 -8 50 0 66 91 23 137 -25 27
-44 31 -88 21z"/>
<path d="M3843 325 c-11 -47 -17 -85 -12 -85 7 0 16 19 24 57 2 10 8 33 14 51
5 18 11 36 12 40 2 7 40 4 48 -4 2 -2 -4 -34 -13 -71 -19 -79 -20 -93 -6 -93
5 0 15 20 21 45 12 49 28 56 58 26 35 -35 6 -114 -46 -124 -53 -10 -142 19
-167 55 -27 38 -16 109 20 131 8 4 14 12 14 18 0 17 -39 -15 -50 -41 -6 -14
-11 -42 -12 -63 -2 -69 72 -117 181 -117 55 0 90 32 98 88 6 47 -14 82 -48 82
-23 0 -32 15 -24 39 4 13 13 18 28 15 29 -5 -49 21 -89 30 l-30 7 -21 -86z"/>
<path d="M4093 251 l-2 -88 87 -2 c93 -1 102 2 121 36 29 56 -7 143 -59 143
-40 0 -60 -34 -60 -105 l0 -65 -30 0 c-34 0 -33 -2 -30 98 1 54 -2 72 -12 72
-10 0 -14 -23 -15 -89z m182 59 c30 -34 25 -109 -9 -132 -6 -4 -23 -8 -38 -8
-27 0 -27 1 -25 64 3 88 32 120 72 76z"/>
<path d="M743 296 c-18 -40 -11 -86 14 -86 15 0 15 1 -1 13 -23 17 -17 52 9
52 16 0 20 -7 20 -32 0 -37 9 -42 25 -14 14 28 2 51 -31 58 -24 4 -27 8 -18
19 6 8 27 14 45 14 27 0 36 -6 47 -27 24 -47 -3 -88 -64 -98 -29 -5 -39 -12
-39 -25 0 -17 8 -18 93 -15 50 2 113 4 140 4 26 1 47 4 47 9 0 4 -60 6 -132 4
-93 -2 -129 0 -118 7 8 6 23 11 32 11 57 0 92 54 67 102 -17 32 -28 38 -77 38
-38 0 -44 -3 -59 -34z"/>
</g>
</svg>
